<svg xmlns="http://www.w3.org/2000/svg" viewBox="0 0 960 540" role="img" aria-label="citys Platzhalter">
  <defs>
    <linearGradient id="g" x1="0" y1="0" x2="1" y2="1">
      <stop offset="0" stop-color="#160702"/>
      <stop offset="0.52" stop-color="#7d2404"/>
      <stop offset="1" stop-color="#c25c08"/>
    </linearGradient>
    <pattern id="p" width="48" height="48" patternUnits="userSpaceOnUse">
      <rect width="48" height="48" fill="none"/>
      <path d="M0 0h48v48H0z" fill="rgba(254,228,78,.05)"/>
      <path d="M0 0h24v24H0zm24 24h24v24H24z" fill="rgba(0,0,0,.16)"/>
      <path d="M24 0h24v24H24zM0 24h24v24H0z" fill="rgba(255,255,255,.04)"/>
    </pattern>
  </defs>
  <rect width="960" height="540" fill="url(#g)"/>
  <rect width="960" height="540" fill="url(#p)" opacity=".86"/>
  <g stroke="#7d2404" stroke-width="14" stroke-linejoin="miter">
    <path d="M480 92l122 70v142l-122 72-122-72V162z" fill="#c25c08"/>
    <path d="M480 92v284M358 162l122 72 122-72M358 304l122-70 122 70" fill="none" opacity=".55"/>
  </g>
  <rect x="118" y="386" width="724" height="64" fill="rgba(5,2,0,.62)" stroke="#7d2404" stroke-width="8"/>
  <text x="480" y="432" text-anchor="middle" font-family="monospace" font-size="42" font-weight="900" fill="#fff4cf" letter-spacing="7">RP PLACEHOLDER</text>
</svg>